<svg xmlns="http://www.w3.org/2000/svg" xmlns:xlink="http://www.w3.org/1999/xlink" overflow="visible" style="overflow: visible;"><path stroke="none" fill="#0189b3" fill-opacity="1" d="M8.00 50.24L8.00 50.24L7.62 51.04L7.62 51.04Q7.62 51.88 10.00 52.66L10.00 52.66L10.00 52.66Q12.39 53.44 15.25 53.44L15.25 53.44L15.25 53.44Q18.11 53.44 21.53 52.59L21.53 52.59L21.53 52.59Q24.96 51.74 27.50 50.51L27.50 50.51L27.50 50.51Q30.03 49.28 31.68 47.93L31.68 47.93L31.68 47.93Q33.34 46.58 33.34 45.59L33.34 45.59L33.34 45.59Q33.34 44.33 30.41 43.24L30.41 43.24L30.41 43.24Q27.48 42.16 21.90 40.85L21.90 40.85L21.90 40.85Q16.32 39.55 13.73 37.56L13.73 37.56L13.73 37.56Q11.13 35.57 11.13 32.71L11.13 32.71L11.13 32.71Q11.13 29.85 13.18 27.25L13.18 27.25L13.18 27.25Q15.23 24.64 18.53 22.62L18.53 22.62L18.53 22.62Q21.83 20.60 25.72 19.01L25.72 19.01L25.72 19.01Q33.78 15.76 40.66 15.76L40.66 15.76L40.66 15.76Q43.30 15.76 45.32 16.23L45.32 16.23L45.32 16.23Q49.19 17.14 49.19 18.63L49.19 18.63L49.19 18.63Q49.19 20.13 48.93 20.67L48.93 20.67L48.93 20.67Q48.66 21.21 48.50 21.39L48.50 21.39L48.50 21.39Q48.34 21.56 48.09 21.74L48.09 21.74L48.09 21.74Q47.84 21.91 47.72 22.00L47.72 22.00L47.72 22.00Q46.44 23.09 40.66 23.35L40.66 23.35L40.66 23.35Q38.67 23.44 38.50 23.55L38.50 23.55L38.50 23.55Q38.32 23.67 38.19 23.67L38.19 23.67L38.19 23.67Q38.06 23.67 37.88 23.44L37.88 23.44L37.88 23.44Q37.71 23.20 37.71 22.68L37.71 22.68L37.71 22.68Q37.71 22.15 38.85 20.74L38.85 20.74L38.85 20.74Q35.27 20.95 31.22 22.38L31.22 22.38L31.22 22.38Q27.16 23.82 24.17 25.62L24.17 25.62L24.17 25.62Q21.18 27.42 19.19 29.17L19.19 29.17L19.19 29.17Q17.20 30.91 17.20 31.63L17.20 31.63L17.20 31.63Q17.20 32.34 17.64 32.81L17.64 32.81L17.64 32.81Q18.87 34.13 24.46 35.57L24.46 35.57L24.46 35.57Q30.26 37.06 32.20 37.97L32.20 37.97L32.20 37.97Q34.13 38.88 35.41 39.70L35.41 39.70L35.41 39.70Q36.68 40.52 37.44 41.37L37.44 41.37L37.44 41.37Q39.23 43.42 39.23 45.53L39.23 45.53L39.23 45.53Q39.23 47.64 38.10 49.48L38.10 49.48L38.10 49.48Q36.97 51.33 34.70 53.06L34.70 53.06L34.70 53.06Q32.43 54.79 29.36 56.13L29.36 56.13L29.36 56.13Q22.62 59.15 13.30 59.15L13.30 59.15L13.30 59.15Q6.50 59.15 4.63 55.55L4.63 55.55L4.63 55.55Q4.13 54.64 4.13 53.66L4.13 53.66L4.13 53.66Q4.13 52.68 4.58 51.88L4.58 51.88L4.58 51.88Q5.04 51.09 5.68 50.68L5.68 50.68L5.68 50.68Q6.94 49.89 7.47 49.89L7.47 49.89L7.47 49.89Q8.00 49.89 8.00 50.24ZM61.82 35.98L61.82 35.98L61.82 35.98Q62.70 35.98 63.62 36.77L63.62 36.77L63.62 36.77Q64.54 37.56 64.54 39.18L64.54 39.18L64.54 39.18Q64.54 40.81 63.40 43.40L63.40 43.40L63.40 43.40Q62.26 46.00 60.26 48.68L60.26 48.68L60.26 48.68Q58.27 51.36 55.88 53.72L55.88 53.72L55.88 53.72Q53.50 56.07 50.73 57.58L50.73 57.58L50.73 57.58Q47.96 59.09 45.70 59.09L45.70 59.09L45.70 59.09Q43.45 59.09 42.08 57.67L42.08 57.67L42.08 57.67Q40.72 56.25 40.72 53.72L40.72 53.72L40.72 53.72Q40.72 51.18 41.97 48.11L41.97 48.11L41.97 48.11Q43.21 45.03 45.18 42.67L45.18 42.67L45.18 42.67Q47.14 40.31 49.42 38.44L49.42 38.44L49.42 38.44Q54.20 34.60 57.80 34.60L57.80 34.60L57.80 34.60Q59.41 34.60 60.23 35.39L60.23 35.39L60.23 35.39Q60.53 35.65 60.53 35.86L60.53 35.86L60.53 36.04L60.53 36.04Q60.94 35.98 61.82 35.98ZM58.86 39.87L58.86 39.87L58.65 39.87L58.65 39.87Q57.63 39.87 57.63 38.38L57.63 38.38L57.63 38.38Q55.49 39.08 53.14 40.84L53.14 40.84L53.14 40.84Q50.80 42.60 48.96 45L48.96 45L48.96 45Q45.21 49.80 45.15 53.12L45.15 53.12L45.15 53.12Q45.15 54.76 46.35 54.76L46.35 54.76L46.35 54.76Q47.55 54.76 49.92 53.17L49.92 53.17L49.92 53.17Q52.29 51.59 54.62 48.66L54.62 48.66L54.62 48.66Q56.95 45.73 58.11 43.58L58.11 43.58L58.11 43.58Q59.27 41.43 59.27 40.65L59.27 40.65L59.27 40.65Q59.27 39.87 58.86 39.87ZM79.63 27.10L80.19 27.13L80.71 27.07L80.71 27.07Q81.15 27.07 81.42 27.83L81.42 27.83L81.42 27.83Q81.68 28.59 81.68 28.86L81.68 28.86L81.68 28.86Q81.68 29.12 81.09 29.85L81.09 29.85L72.74 42.57L72.74 42.57Q77.14 38.17 81.68 36.15L81.68 36.15L81.68 36.15Q83.44 35.39 84.86 35.39L84.86 35.39L84.86 35.39Q86.28 35.39 87.14 36.31L87.14 36.31L87.14 36.31Q88.01 37.24 88.01 38.61L88.01 38.61L88.01 38.61Q88.01 39.99 87.25 42.01L87.25 42.01L87.25 42.01Q86.48 44.03 85.18 46.32L85.18 46.32L85.18 46.32Q83.88 48.60 82.02 50.92L82.02 50.92L82.02 50.92Q80.16 53.23 78.12 55.11L78.12 55.11L78.12 55.11Q76.08 56.98 73.68 58.15L73.68 58.15L73.68 58.15Q71.28 59.33 69.46 59.33L69.46 59.33L69.46 59.33Q65.80 59.33 65.80 55.96L65.80 55.96L65.80 55.96Q62.37 61.20 57.89 68.38L57.89 68.38L57.89 68.38Q53.41 75.56 53.09 75.97L53.09 75.97L53.09 75.97Q52.76 76.38 52.54 76.38L52.54 76.38L52.54 76.38Q52.32 76.38 51.87 76.11L51.87 76.11L51.87 76.11Q51.42 75.85 50.92 75.23L50.92 75.23L50.92 75.23Q50.42 74.62 50.41 73.45L50.41 73.45L50.41 73.45Q50.39 72.28 51.09 71.07L51.09 71.07L51.09 71.07Q55.05 64.48 66.34 46.27L66.34 46.27L66.34 46.27Q77.64 28.07 78.57 27.45L78.57 27.45L78.57 27.45Q79.10 27.10 79.63 27.10L79.63 27.10ZM82.76 40.61L82.76 40.61L82.76 40.61Q82.76 39.99 82.18 39.99L82.18 39.99L82.18 39.99Q80.60 39.99 75.48 44.85L75.48 44.85L75.48 44.85Q70.37 49.72 67.35 53.73L67.35 53.73L67.35 53.73Q68.12 54.67 69.61 54.67L69.61 54.67L69.61 54.67Q71.10 54.67 73.48 53.06L73.48 53.06L73.48 53.06Q75.85 51.45 77.87 49.23L77.87 49.23L77.87 49.23Q79.89 47.02 81.33 44.59L81.33 44.59L81.33 44.59Q82.76 42.16 82.76 40.61ZM113.14 49.66L113.14 49.66L113.14 49.66Q113.35 51.01 113.35 51.78L113.35 51.78L113.35 51.78Q113.35 52.56 113.07 53.13L113.07 53.13L113.07 53.13Q112.79 53.70 111.84 54.74L111.84 54.74L111.84 54.74Q110.89 55.78 109.57 56.84L109.57 56.84L109.57 56.84Q106.35 59.38 102.98 59.38L102.98 59.38L102.98 59.38Q98.14 59.38 98.14 55.11L98.14 55.11L98.14 55.11Q98.14 51.39 104.62 40.28L104.62 40.28L104.62 40.28Q104.85 39.87 104.94 39.70L104.94 39.70L104.94 39.70Q102.69 41.28 96.31 48.33L96.31 48.33L96.31 48.33Q89.94 55.37 87.83 58.30L87.83 58.30L87.83 58.30Q87.66 58.56 86.95 58.89L86.95 58.89L86.95 58.89Q86.25 59.21 85.85 59.21L85.85 59.21L85.85 59.21Q85.46 59.21 85.00 58.96L85.00 58.96L85.00 58.96Q84.55 58.71 84.43 58.71L84.43 58.71L84.43 58.71Q84.05 58.71 84.05 58.46L84.05 58.46L84.05 58.46Q84.05 58.21 85.09 55.77L85.09 55.77L85.09 55.77Q86.13 53.32 87.83 49.69L87.83 49.69L87.83 49.69Q92.49 39.67 101.69 23.61L101.69 23.61L101.69 23.61Q104.91 17.99 106.73 15.64L106.73 15.64L106.73 15.64Q108.02 13.97 111.06 13.97L111.06 13.97L111.06 13.97Q111.71 13.97 111.80 14.36L111.80 14.36L111.80 14.36Q111.88 14.74 111.88 15.18L111.88 15.18L111.88 15.18Q111.88 15.62 111.71 16.05L111.71 16.05L108.57 20.95L108.57 20.95Q99.26 35.48 94.54 45.03L94.54 45.03L94.54 45.03Q99.11 39.46 103.42 36.45L103.42 36.45L103.42 36.45Q106.08 34.54 107.42 34.54L107.42 34.54L107.42 34.54Q108.75 34.54 109.83 34.97L109.83 34.97L109.83 34.97Q110.92 35.39 110.92 37.00L110.92 37.00L110.92 37.00Q110.92 37.59 109.01 41.34L109.01 41.34L109.01 41.34Q103.30 52.59 103.30 53.83L103.30 53.83L103.30 53.83Q103.30 55.08 104.33 55.08L104.33 55.08L104.33 55.08Q105.82 55.08 108.93 52.18L108.93 52.18L108.93 52.18Q111.27 49.98 111.88 49.37L111.88 49.37L111.88 49.37Q112.24 49.10 112.53 49.10L112.53 49.10L112.53 49.10Q113.09 49.10 113.14 49.66ZM130.02 26.13L130.02 26.13L130.02 26.13Q130.02 27.80 128.47 29.49L128.47 29.49L128.47 29.49Q126.91 31.17 125.23 31.17L125.23 31.17L125.23 31.17Q123.54 31.17 123.54 29.41L123.54 29.41L123.54 29.41Q123.54 27.66 125.02 26.06L125.02 26.06L125.02 26.06Q126.50 24.46 128.29 24.46L128.29 24.46L128.29 24.46Q129.08 24.46 129.55 24.90L129.55 24.90L129.55 24.90Q130.02 25.34 130.02 26.13ZM125.27 51.71L125.27 51.71L125.27 51.71Q125.27 52.59 125.10 52.97L125.10 52.97L125.10 52.97Q123.66 55.90 120.53 57.70L120.53 57.70L120.53 57.70Q117.39 59.50 115.08 59.50L115.08 59.50L115.08 59.50Q112.76 59.50 111.09 57.95L111.09 57.95L111.09 57.95Q109.42 56.40 109.42 54.79L109.42 54.79L109.42 54.79Q109.42 53.17 111.04 50.10L111.04 50.10L111.04 50.10Q112.65 47.02 114.26 44.41L114.26 44.41L114.26 44.41Q115.87 41.81 115.87 41.59L115.87 41.59L115.87 41.59Q115.87 41.37 115.27 40.72L115.27 40.72L115.27 40.72Q114.67 40.08 114.67 39.77L114.67 39.77L114.67 39.77Q114.67 39.46 115.88 38.16L115.88 38.16L115.88 38.16Q117.10 36.86 118.84 35.58L118.84 35.58L118.84 35.58Q120.59 34.31 121.51 34.31L121.51 34.31L121.51 34.31Q122.43 34.31 123.16 35.13L123.16 35.13L123.16 35.13Q123.90 35.95 123.90 36.62L123.90 36.62L123.90 36.62Q123.90 37.29 116.92 49.31L116.92 49.31L116.92 49.31Q116.84 49.48 116.44 50.08L116.44 50.08L116.44 50.08Q116.04 50.68 115.83 51.08L115.83 51.08L115.83 51.08Q115.61 51.47 115.31 52.03L115.31 52.03L115.31 52.03Q114.73 53.20 114.73 53.99L114.73 53.99L114.73 53.99Q114.73 54.99 116.07 54.99L116.07 54.99L116.07 54.99Q117.42 54.99 118.87 54.07L118.87 54.07L118.87 54.07Q120.32 53.14 121.38 52.03L121.38 52.03L121.38 52.03Q124.13 49.07 124.51 49.07L124.51 49.07L124.51 49.07Q125.27 49.07 125.27 51.71ZM145.46 36.04L145.46 36.04L145.46 36.04Q147.69 36.04 147.69 37.56L147.69 37.56L147.69 37.56Q147.69 38.38 147.30 38.76L147.30 38.76L147.30 38.76Q146.92 39.14 145.68 41.29L145.68 41.29L145.68 41.29Q144.43 43.45 142.92 46.80L142.92 46.80L142.92 46.80Q141.42 50.16 140.98 52.53L140.98 52.53L140.98 52.53Q140.89 52.82 140.89 53.35L140.89 53.35L140.89 53.35Q140.89 54.96 141.77 54.96L141.77 54.96L141.77 54.96Q142.65 54.96 143.85 54.13L143.85 54.13L143.85 54.13Q145.05 53.29 145.99 52.34L145.99 52.34L145.99 52.34Q146.92 51.39 147.82 50.39L147.82 50.39L147.82 50.39Q148.71 49.39 148.89 49.25L148.89 49.25L148.89 49.25Q149.06 49.10 149.41 49.10L149.41 49.10L149.41 49.10Q149.97 49.10 150.09 49.95L150.09 49.95L150.09 49.95Q150.21 50.80 150.21 51.71L150.21 51.71L150.21 51.71Q150.21 52.62 150.03 52.97L150.03 52.97L150.03 52.97Q149.18 54.64 146.29 56.98L146.29 56.98L146.29 56.98Q143.41 59.33 141.05 59.33L141.05 59.33L141.05 59.33Q138.69 59.33 137.58 57.89L137.58 57.89L137.58 57.89Q136.46 56.46 136.46 54.71L136.46 54.71L136.46 54.71Q136.46 52.97 137.05 51.65L137.05 51.65L137.05 51.65Q134.62 54.81 131.47 57.01L131.47 57.01L131.47 57.01Q128.32 59.21 126.33 59.21L126.33 59.21L126.33 59.21Q124.34 59.21 123.08 58.01L123.08 58.01L123.08 58.01Q121.46 56.51 121.46 53.86L121.46 53.86L121.46 53.86Q121.46 51.21 122.65 48.53L122.65 48.53L122.65 48.53Q123.84 45.85 125.77 43.64L125.77 43.64L125.77 43.64Q127.71 41.43 130.02 39.61L130.02 39.61L130.02 39.61Q134.88 35.80 138.98 35.80L138.98 35.80L138.98 35.80Q140.57 35.80 141.56 36.33L141.56 36.33L141.56 36.33Q142.56 36.86 142.82 37.65L142.82 37.65L142.82 37.65Q143.53 36.59 144.01 36.31L144.01 36.31L144.01 36.31Q144.49 36.04 145.46 36.04ZM141.56 39.29L141.56 39.29L141.56 39.29Q136.55 39.29 131.19 44.85L131.19 44.85L131.19 44.85Q129.29 46.85 127.69 49.63L127.69 49.63L127.69 49.63Q126.09 52.41 126.09 53.44L126.09 53.44L126.09 53.44Q126.09 54.46 126.68 54.46L126.68 54.46L126.68 54.46Q127.50 54.46 131.25 51.23L131.25 51.23L131.25 51.23Q135 47.99 136.23 46.46L136.23 46.46L136.23 46.46Q137.58 44.77 141.56 39.29Z" transform="rotate(-7 77.17000102996826 45.17499828338623)"></path></svg>